# xmcd
#
# Track frame offsets: 
#        150
#        13612
#        28912
#        47891
#        64119
#        79787
#        92555
#        109544
#        126043
#        143159
#        161011
#        176072
#        193407
#        212288
#        229992
#        247349
#
# Disc length: 3512 seconds
#
# Revision: 3
# Processed by: cddbd v1.5.2PL0 Copyright (c) Steve Scherf et al.
# Submitted via: ExactAudioCopyFreeDBPlugin 1.0
#
DISCID=e20db610
DTITLE=The MusicLab - Guitar Memories
DYEAR=2001
DGENRE=Guitar
TTITLE0=I Love you
TTITLE1=Massachuesetts
TTITLE2=Stranger On the Shore
TTITLE3=I Will Follow You
TTITLE4=Summer Kisses Summer Time
TTITLE5=Your Cheating Heart
TTITLE6=I Really Don't Know How
TTITLE7=Roses Are Red
TTITLE8=Take Me Home Country Home
TTITLE9=I Just Call to Say I Love You
TTITLE10=I Can't Stop Loving You
TTITLE11=More Than I Can Say
TTITLE12=And I love you so
TTITLE13=He Will Have to Go
TTITLE14=Silence Is Golden
TTITLE15=Crying in the Rain
EXTD=
EXTT0=
EXTT1=
EXTT2=
EXTT3=
EXTT4=
EXTT5=
EXTT6=
EXTT7=
EXTT8=
EXTT9=
EXTT10=
EXTT11=
EXTT12=
EXTT13=
EXTT14=
EXTT15=
PLAYORDER=
